<svg fill="#00205b" version="1.1" id="Layer_1" xmlns="http://www.w3.org/2000/svg" viewBox="0 0 1481.1 473.1">
<polygon points="1305.6,323 1411.3,424.8 1305.6,424.8 1305.6,473.1 1481.1,473.1 1481.1,424.8 1375.5,323 1481.1,323 
	1481.1,274.7 1305.6,274.7 "/>
<path d="M1284.7,341.1c0-37.8-24.8-66.4-75.8-66.4h-102.7v198.4h48.3V317.6h54.7c20.2,0,27.5,11.5,27.5,24.8
	c0,13.6-7.5,24.8-27.8,24.8h-46.8l66.4,106h55c0,0-45.3-71.3-45-71.3C1266.6,395.2,1284.7,375.6,1284.7,341.1"/>
<polygon points="972.1,398.2 931.4,398.2 961.5,337.2 962.1,337.2 1029.8,473.1 1085.3,473.1 984.2,274.7 941.3,274.7 
	840.1,473.1 894.5,473.1 910.9,439.9 992.3,439.9 "/>
<polygon points="834.9,274.7 767.8,410.6 767.2,410.6 748.9,373.9 715.4,373.9 697.2,410.6 696.9,410.6 696.6,410.6 
	629.5,274.7 575.1,274.7 676.3,473.1 719.2,473.1 732.2,447.7 745.2,473.1 788,473.1 889.2,274.7 "/>
<polygon points="505.9,274.7 505.9,345.5 427.1,345.5 427.1,274.7 378.8,274.7 378.8,473.1 427.1,473.1 427.1,393.8 
	505.9,393.8 505.9,473.1 554.2,473.1 554.2,274.7 "/>
<path d="M277.1,432.2c-14.6,0-22.6-1.7-29.3-11.8c-6.7-10.1-8.4-31.7-8.4-46.5c0-14.7,1.7-36.4,8.4-46.5
	c6.7-10.1,14.6-11.8,29.3-11.8c24,0.2,52.3,6.5,65.7,15.3l15.1-38.9c-18.1-11.4-49.7-17.4-78.3-17.4s-50.7,9.8-65.8,27.1
	c-15,17.3-23,42.1-23,72.1c0,30,7.9,54.8,23,72.1c15,17.3,37.2,27.1,65.8,27.1s60.1-6,78.3-17.4l-15.1-38.9
	C329.4,425.7,301.1,432,277.1,432.2z"/>
<path d="M109.7,354.4c-44-10.7-53.6-11.7-53.6-24.3c0-9.7,11-14.5,29.5-14.5c24.6,0,50.8,6.2,65.8,15.4l14.8-38.8
	c-19.1-10.1-47.2-17.4-79.9-17.4c-49,0-76.5,24.3-76.5,57.1c0,35.2,20.6,49.5,67.8,59.7c36.8,8.1,44.6,13.2,44.6,23.5
	c0,11.2-10.1,16.2-30.1,16.2c-29,0-55.2-7-76.2-18.5L1.7,453.1c22.9,12.2,57.1,20,91.5,20c48.1,0,76.8-22.3,76.8-59.7
	C170,383.5,150.6,364.2,109.7,354.4"/>
<polygon points="1367.9,123.5 1327.2,123.5 1357.3,62.5 1357.9,62.5 1425.5,198.4 1481.1,198.4 1379.9,0 1337.1,0 
	1235.9,198.4 1290.2,198.4 1306.6,165.2 1388.1,165.2 "/>
<g>
	<rect x="1027.1" y="0" width="48.3" height="198.4"/>
	<polygon points="1204.4,0 1149.4,0 1083,92.4 1149.4,198.4 1204.4,198.4 1137.4,92.4 	"/>
</g>
<polygon points="947.3,0 947.3,70.8 868.5,70.8 868.5,0 820.1,0 820.1,198.4 868.5,198.4 868.5,119.1 947.3,119.1 
	947.3,198.4 995.6,198.4 995.6,0 "/>
<path d="M707.9,157.5c-14.6,0-22.6-1.7-29.3-11.8c-6.7-10.1-8.4-31.7-8.4-46.5s1.7-36.4,8.4-46.5
	c6.7-10.1,14.6-11.8,29.3-11.8c24,0.2,52.3,6.5,65.7,15.3l15.1-38.9C770.5,6,738.9,0,710.4,0c-28.5,0-50.7,9.8-65.8,27.1
	c-15,17.3-23,42.1-23,72.1s7.9,54.8,23,72.1c15,17.3,37.2,27.1,65.8,27.1c28.5,0,60.1-6,78.3-17.4l-15.1-38.9
	C760.2,151,731.9,157.3,707.9,157.5z"/>
<path d="M529.9,79.7c-44-10.7-53.6-11.7-53.6-24.3c0-9.7,11-14.5,29.5-14.5c24.6,0,50.8,6.2,65.8,15.4l14.8-38.8
	C567.3,7.2,539.2,0,506.5,0c-49,0-76.5,24.3-76.5,57.1c0,35.2,20.6,49.5,67.8,59.7c36.8,8.1,44.6,13.2,44.6,23.5
	c0,11.2-10.1,16.2-30.1,16.2c-29,0-55.2-7-76.2-18.5l-14.2,40.6c22.9,12.2,57.1,20,91.5,20c48.1,0,76.8-22.3,76.8-59.7
	C590.2,108.8,570.8,89.5,529.9,79.7"/>
<path d="M301.4,0c-57.1,0-88.7,39.2-88.7,99.2c0,60,31.6,99.2,88.7,99.2c57.1,0,89-39.2,89-99.2
	C390.4,39.2,358.4,0,301.4,0z M301.4,154.4c-26.6,0-40.2-25.7-40.2-55.1c0-29.5,13.6-55.1,40.2-55.1c26.9,0,40.5,25.7,40.5,55.1
	C341.9,128.7,328.3,154.4,301.4,154.4z"/>
<path d="M123,0c0,0,0,128.5,0,139c0,11.4-10.3,16.6-30.8,16.6c-29.6,0-56.3-7.2-77.8-18.9L0,178
	c23.4,12.4,58.3,20.4,93.4,20.4c49.1,0,87.7-22.8,87.7-60.9c0-30.6,0-137.5,0-137.5H123z"/>
</svg>
